<svg width="33" height="39" viewBox="0 0 33 39" fill="none" xmlns="http://www.w3.org/2000/svg">
<mask id="mask0_8_269" style="mask-type:luminance" maskUnits="userSpaceOnUse" x="0" y="0" width="33" height="39">
<path d="M32.6609 0H0.0993652V38.043H32.6609V0Z" fill="white"/>
</mask>
<g mask="url(#mask0_8_269)">
<path d="M32.2878 17.9695L32.2867 17.9681L25.6406 10.2406C25.1427 9.6617 24.3373 9.66386 23.8417 10.2456C23.3462 10.8274 23.3481 11.7683 23.8459 12.3472L28.3082 17.5354H1.3713C0.66881 17.5354 0.0993652 18.2006 0.0993652 19.0214C0.0993652 19.8422 0.66881 20.5075 1.3713 20.5075H28.3081L23.8461 25.6956C23.3481 26.2745 23.3462 27.2154 23.8417 27.7971C24.3373 28.379 25.1428 28.3811 25.6406 27.8022L32.2867 20.0747L32.2879 20.0733C32.786 19.4923 32.7845 18.5484 32.2878 17.9695Z" fill="black"/>
</g>
</svg>
