<svg width="50" height="50" viewBox="0 0 50 50" fill="none" xmlns="http://www.w3.org/2000/svg">
<rect opacity="0.4" x="0.5" y="0.5" width="49" height="49" rx="24.5" stroke="#FDFDFB"/>
<path d="M17.616 32C17.1553 32 16.771 31.846 16.463 31.538C16.155 31.23 16.0007 30.8453 16 30.384V19.616C16 19.1553 16.1543 18.771 16.463 18.463C16.7717 18.155 17.1557 18.0007 17.615 18H32.385C32.845 18 33.229 18.1543 33.537 18.463C33.845 18.7717 33.9993 19.156 34 19.616V30.385C34 30.845 33.8457 31.2293 33.537 31.538C33.2283 31.8467 32.8443 32.0007 32.385 32H17.616ZM25 25.116L17 19.885V30.385C17 30.5643 17.0577 30.7117 17.173 30.827C17.2883 30.9423 17.436 31 17.616 31H32.385C32.5643 31 32.7117 30.9423 32.827 30.827C32.9423 30.7117 33 30.564 33 30.384V19.884L25 25.116ZM25 24L32.692 19H17.308L25 24ZM17 19.885V19V30.385C17 30.5643 17.0577 30.7117 17.173 30.827C17.2883 30.9423 17.436 31 17.616 31H17V19.885Z" fill="#FDFDFB"/>
</svg>
