<svg width="50" height="50" viewBox="0 0 50 50" fill="none" xmlns="http://www.w3.org/2000/svg">
<rect opacity="0.4" x="0.5" y="0.5" width="49" height="49" rx="24.5" stroke="#FDFDFB"/>
<path d="M33.5394 33.6208H29.8827C29.624 33.6208 29.415 33.4118 29.415 33.1531V27.2642C29.415 25.2445 28.3732 25.2445 28.0295 25.2445C27.1047 25.2445 26.7114 25.9744 26.5838 26.2898C26.5236 26.4315 26.4952 26.6724 26.4952 27.0091V33.1567C26.4952 33.4154 26.2862 33.6244 26.0276 33.6244H22.3673C22.2433 33.6244 22.1228 33.5748 22.0343 33.4862C21.9457 33.3977 21.8961 33.2772 21.8996 33.1531C21.8996 33.054 21.9492 23.1788 21.8996 22.1689C21.8925 22.0413 21.9386 21.9173 22.0272 21.8252C22.1158 21.7331 22.2362 21.6799 22.3673 21.6799H26.0276C26.2862 21.6799 26.4953 21.889 26.4953 22.1476V22.424C27.1118 21.8748 28.0012 21.4212 29.3264 21.4212C32.2567 21.4212 34.0071 23.448 34.0071 26.8425V33.1531C34.0071 33.4118 33.798 33.6208 33.5394 33.6208ZM30.3504 32.6854L33.0752 32.6854V26.8424C33.0752 23.9901 31.711 22.3566 29.3299 22.3566C27.739 22.3566 26.9665 23.1503 26.4811 23.8767C26.4244 24.068 26.2437 24.2098 26.0311 24.2098H26.0063C25.8362 24.2098 25.6803 24.1177 25.5988 23.9689C25.5351 23.8519 25.5209 23.7173 25.5634 23.5932V22.6118H22.8457C22.8705 24.5641 22.8457 30.8819 22.8386 32.6819H25.5598V27.0055C25.5598 26.5342 25.6094 26.1941 25.7157 25.9354C26.1268 24.9185 26.9913 24.3055 28.026 24.3055C29.5 24.3055 30.3468 25.3827 30.3468 27.2606V32.6854H30.3504L30.3504 32.6854ZM20.3441 33.6208H16.6839C16.4252 33.6208 16.2162 33.4117 16.2162 33.1531V22.1476C16.2162 21.8889 16.4252 21.6799 16.6839 21.6799H20.3441C20.6028 21.6799 20.8118 21.8889 20.8118 22.1476V33.1531C20.8118 33.4117 20.6028 33.6208 20.3441 33.6208V33.6208ZM17.1516 32.6854H19.8764V22.6153H17.1516V32.6854L17.1516 32.6854ZM18.5157 21.1129L18.4909 21.1129C17.0488 21.1129 16 20.1137 16 18.7389C16 17.3676 17.0665 16.3684 18.5405 16.3684C19.9897 16.3684 21.0244 17.3393 21.0528 18.7283C21.0528 20.1137 19.9862 21.1129 18.5157 21.1129ZM18.5405 17.3074C17.5803 17.3074 16.9354 17.885 16.9354 18.7425C16.9354 19.5858 17.5732 20.1775 18.4909 20.1775H18.5157C19.4724 20.1775 20.1173 19.5999 20.1173 18.7424C20.0996 17.8743 19.4795 17.3074 18.5405 17.3074Z" fill="#FDFDFB"/>
</svg>
