<svg width="50" height="50" viewBox="0 0 50 50" fill="none" xmlns="http://www.w3.org/2000/svg">
<rect opacity="0.4" x="0.5" y="0.5" width="49" height="49" rx="24.5" stroke="#FDFDFB"/>
<path d="M24.998 16C20.0233 16.0054 15.9946 20.0425 16 25.0173C16.0013 26.5269 16.3823 28.0119 17.108 29.3356L16.4173 33.5799L20.6616 32.8893C25.0189 35.2793 30.4896 33.685 32.8797 29.3273C35.2697 24.9695 33.6758 19.4997 29.3181 17.1092C27.9941 16.3829 26.5081 16.0014 24.998 16ZM20.4984 20.0894H22.9512C23.0622 20.0894 23.1687 20.1335 23.2472 20.212C23.3257 20.2905 23.3698 20.397 23.3698 20.508C23.356 21.0662 23.4498 21.6218 23.646 22.1446C23.7305 22.3196 23.7491 22.5192 23.6984 22.7068C23.6476 22.8944 23.531 23.0574 23.3698 23.1659L22.5117 24.0031C22.8922 24.746 23.3896 25.423 23.9851 26.008C24.5653 26.6131 25.2396 27.1206 25.9816 27.5107L26.8188 26.6526C27.2374 26.234 27.4299 26.234 27.8401 26.3764C28.3629 26.5725 28.9185 26.6663 29.4767 26.6526C29.5861 26.6577 29.6896 26.7034 29.767 26.7809C29.8444 26.8583 29.8902 26.9618 29.8953 27.0712V29.524C29.8902 29.6334 29.8444 29.7369 29.767 29.8143C29.6896 29.8917 29.5861 29.9375 29.4767 29.9426C27.0145 29.8353 24.6806 28.8146 22.9303 27.0795C21.1925 25.3311 20.1713 22.9961 20.0673 20.5331C20.0683 20.4179 20.1136 20.3075 20.1939 20.2249C20.2742 20.1422 20.3832 20.0937 20.4984 20.0894Z" stroke="#FDFDFB" stroke-width="0.8" stroke-linecap="round" stroke-linejoin="round"/>
</svg>
